# xmcd
#
# Track frame offsets:
#	150
#	15342
#	29428
#	48406
#	69883
#	86362
#	102657
#	112550
#	130255
#	145032
#	164108
#	179015
#	199231
#	219787
#	231442
#	242538
#
# Disc length: 3519 seconds
#
# Revision: 1
# Processed by: cddbd v1.4PL0 Copyright (c) Steve Scherf et al.
# Submitted via: CDmax 1.8
#
DISCID=d50dbd10
DTITLE=Various Artist - Down At The Twisted am Lounge
DYEAR=2001
DGENRE=Country
TTITLE0=Chip Taylor w/ Jon Langford - Brixton
TTITLE1=B J Cole - Bollygrass
TTITLE2=Chineseburn - Find The Key
TTITLE3=Solomon - You Must Have Been There
TTITLE4=Neil Halstead - Two Stones In My Pocket
TTITLE5=Menlo Park - Cochon Cochon
TTITLE6=Coley Park - The People's Song
TTITLE7=Departure Lounge - Alone Again But...
TTITLE8=Four Storeys - The Fear
TTITLE9=Eileen Rose - Mortar and Stone
TTITLE10=Marianne Hyatt - Grrrlene
TTITLE11=Lincoln - Proud Of Myself
TTITLE12=Richard Harrison and Ross Godfrey - Opius 1
TTITLE13=John Wyne Army - House Without Love
TTITLE14=Lynette Morgan and The Blackwater Valley Boys - Road Signs and Middle Lin
TTITLE14=es
TTITLE15=Goldrush - Don't Bring Me Down (live and inebriated)
EXTD=
EXTT0=
EXTT1=
EXTT2=
EXTT3=
EXTT4=
EXTT5=
EXTT6=
EXTT7=
EXTT8=
EXTT9=
EXTT10=
EXTT11=
EXTT12=
EXTT13=
EXTT14=
EXTT15=
PLAYORDER=
